# xmcd
#
# Track frame offsets:
#	183
#	11698
#	23883
#	35008
#	48275
#	59533
#	72680
#	85345
#
# Disc length: 1306 seconds
# Revision: 1
# Processed by: cddbd v1.5.2PL0 Copyright (c) Steve Scherf et al.
# Submitted via: dBpowerAMP V12.0
#
DISCID=6d051808
DTITLE=Various Artist - More Blues Rockin'
DYEAR=1949
DGENRE=R&B
TTITLE0=Wynonie Harris - All She Wants to Do Is Rock
TTITLE1=Wynonie Harris - Bloodshot Eyes
TTITLE2=Wynonie Harris with the Todd Rhodes Orchestra - Lovin' Machine
TTITLE3=Wynonie Harris with the Todd Rhodes Orchestra - Keep on Churnin' (Till the Butter Comes)
TTITLE4=Wynonie Harris - Drinkin' Wine, Spo-Dee-O-Dee
TTITLE5=Wynonie Harris with Lucky Millinder and His Orchestra - Oh Babe!
TTITLE6=Wynonie Harris - I Feel That Old Age Coming On
TTITLE7=Wynonie Harris - Good Morning Mr. Blues
EXTD=
EXTT0=
EXTT1=
EXTT2=
EXTT3=
EXTT4=
EXTT5=
EXTT6=
EXTT7=
PLAYORDER=
